<mxfile host="app.diagrams.net" modified="2024-06-03T05:30:51.775Z" agent="Mozilla/5.0 (Macintosh; Intel Mac OS X 10_15_7) AppleWebKit/537.36 (KHTML, like Gecko) Chrome/125.0.0.0 Safari/537.36 Edg/125.0.0.0" etag="VXjiE3EeObiYt6agEx16" version="24.4.0" type="github">
  <diagram name="第 1 页" id="W6taDApUSPvVlKvL5vzq">
    <mxGraphModel dx="755" dy="800" grid="1" gridSize="10" guides="1" tooltips="1" connect="1" arrows="1" fold="1" page="1" pageScale="1" pageWidth="1169" pageHeight="827" math="0" shadow="0">
      <root>
        <mxCell id="0" />
        <mxCell id="1" parent="0" />
      </root>
    </mxGraphModel>
  </diagram>
</mxfile>
